<svg xmlns="http://www.w3.org/2000/svg" xmlns:xlink="http://www.w3.org/1999/xlink" width="1080"
    zoomAndPan="magnify" viewBox="0 0 810 809.999993" height="1080"
    preserveAspectRatio="xMidYMid meet" version="1.0">
    <defs>
        <clipPath id="495fc70874">
            <path
                d="M 360.046875 330.480469 L 567 330.480469 L 567 567 L 360.046875 567 Z M 360.046875 330.480469 "
                clip-rule="nonzero" />
        </clipPath>
        <clipPath id="b3a6203476">
            <path
                d="M 567 405 C 567 494.46875 494.46875 567 405 567 C 315.53125 567 243 494.46875 243 405 C 243 315.53125 315.53125 243 405 243 C 494.46875 243 567 315.53125 567 405 Z M 567 405 "
                clip-rule="nonzero" />
        </clipPath>
    </defs>
    <path fill="#7ac943"
        d="M 567 405 C 567 494.46875 494.46875 567 405 567 C 315.53125 567 243 494.46875 243 405 C 243 315.53125 315.53125 243 405 243 C 494.46875 243 567 315.53125 567 405 "
        fill-opacity="1" fill-rule="nonzero" />
    <g clip-path="url(#495fc70874)">
        <g clip-path="url(#b3a6203476)">
            <path fill="#69ad3a"
                d="M 639.09375 461.488281 L 508.316406 330.710938 L 360.136719 479.695312 L 478.773438 598.332031 L 639.09375 461.488281 "
                fill-opacity="1" fill-rule="nonzero" />
        </g>
    </g>
    <path fill="#ffffff"
        d="M 508.316406 330.710938 C 503.988281 326.382812 498.234375 324 492.117188 324 C 485.996094 324 480.242188 326.382812 475.917969 330.710938 L 375.949219 430.675781 L 334.082031 388.808594 C 329.757812 384.480469 324.003906 382.097656 317.882812 382.097656 C 311.765625 382.097656 306.011719 384.480469 301.683594 388.808594 C 292.753906 397.738281 292.753906 412.273438 301.683594 421.207031 L 359.539062 479.058594 C 359.601562 479.125 359.667969 479.195312 359.75 479.277344 C 360.847656 480.375 362.058594 481.363281 363.347656 482.210938 C 367.09375 484.691406 371.460938 486 375.96875 486 C 382.089844 486 387.839844 483.617188 392.164062 479.292969 C 392.375 479.082031 503.582031 367.839844 508.316406 363.109375 C 512.640625 358.78125 515.023438 353.027344 515.023438 346.910156 C 515.023438 340.789062 512.640625 335.035156 508.316406 330.710938 "
        fill-opacity="1" fill-rule="nonzero" />
</svg>